<svg width="33" height="40" viewBox="0 0 33 40" fill="none" xmlns="http://www.w3.org/2000/svg">
<path d="M5.32089 33.3242C6.3533 33.2543 7.3274 32.8766 8.13655 32.2324C8.3328 32.0756 8.74235 31.6666 8.89166 31.4784C9.24149 31.0394 9.49461 30.599 9.68375 30.103C9.82026 29.7467 9.9127 29.3761 9.97384 28.9471C10.0051 28.7234 10.0094 27.9494 9.98096 27.7371C9.88994 27.07 9.73067 26.5555 9.44626 26.0053C9.15616 25.4423 8.7523 24.9307 8.27165 24.5145C8.22045 24.4703 7.98439 24.2822 7.74549 24.0955C7.50658 23.9087 7.21222 23.675 7.09134 23.5766C5.91388 22.6246 5.34506 21.919 5.04216 21.0411C4.79331 20.317 4.76202 19.459 4.94973 18.5083C4.96822 18.4143 4.98244 18.3359 4.97959 18.333C4.96964 18.3216 0.720545 25.7217 0.598248 25.9626C0.0749331 27.0002 -0.0999794 27.9879 0.0536022 29.0412C0.160256 29.7752 0.421914 30.4622 0.832887 31.0865C1.50552 32.107 2.54646 32.8553 3.72819 33.1674C4.2188 33.2971 4.82601 33.357 5.32089 33.3242ZM4.47477 31.993C3.31579 31.8105 2.33173 31.1207 1.7686 30.0959C1.5624 29.7196 1.42162 29.2906 1.35051 28.8246C1.31781 28.6022 1.31781 28.0592 1.35051 27.8297C1.41308 27.4107 1.53112 27.0287 1.70745 26.6766C1.80984 26.4728 2.02172 26.1265 2.0587 26.1037C2.06723 26.0994 2.04021 26.1593 2.00182 26.2391C1.57804 27.0857 1.50267 28.0991 1.79562 29.0084C2.1881 30.2242 3.17785 31.1535 4.41077 31.4613C4.7478 31.5454 4.90423 31.5625 5.30667 31.5625C5.56548 31.5625 5.70342 31.5554 5.81576 31.5383C6.50972 31.4314 7.09845 31.1734 7.62461 30.7487C7.77677 30.6261 8.101 30.3011 8.19201 30.1786C8.2233 30.1372 8.25032 30.1059 8.25458 30.1087C8.26312 30.1187 8.09816 30.3781 7.98013 30.5377C7.75544 30.8413 7.51369 31.0822 7.20653 31.3088C6.6889 31.6922 6.1087 31.9217 5.44176 32.0072C5.23983 32.0329 4.67812 32.0243 4.47477 31.993Z" fill="#20B4EA"/>
<path d="M25.7256 33.3256C26.8344 33.2391 27.6816 32.8347 28.5245 31.9904C29.3716 31.1405 30.2258 29.8492 31.4435 27.579C31.7716 26.9646 32.5 25.5541 32.5 25.53C32.5 25.5243 32.4321 25.5797 32.3473 25.6535C31.5468 26.3558 30.8368 26.7787 30.2697 26.8936C30.182 26.9106 30.0844 26.9177 29.9402 26.9177C29.6955 26.9163 29.5385 26.8808 29.325 26.7787C28.936 26.5942 28.5372 26.2026 28.1469 25.6223C27.9517 25.3328 27.8895 25.2292 27.1724 23.982C21.8845 14.7902 19.121 9.99276 19.0107 9.81397C18.0645 8.27018 17.182 7.41315 16.0944 6.98605C15.2049 6.637 14.0452 6.56747 13.1655 6.81152C12.9067 6.88389 12.7384 6.94774 12.4668 7.08254C11.3962 7.60896 10.4939 8.60363 9.36674 10.4951C9.04712 11.0314 8.83639 11.4074 8.11794 12.7228C7.08694 14.61 6.59901 15.4571 5.99088 16.4191C5.91167 16.544 5.84096 16.656 5.83389 16.6674C5.82682 16.6787 5.88763 16.6248 5.96966 16.5482C7.4009 15.186 9.115 14.6922 10.7202 15.1775C11.2095 15.3251 11.6989 15.5649 12.1274 15.8657C12.8006 16.3382 13.4172 16.9994 13.9122 17.7827C14.0098 17.9345 13.99 17.9019 14.6844 19.108C15.0182 19.6897 16.3928 22.0778 17.7392 24.4147C19.0842 26.7517 20.3641 28.9738 20.5819 29.3526C21.3456 30.6807 21.6059 31.088 22.0174 31.6045C22.2083 31.8428 22.5548 32.2089 22.7514 32.3792C23.3581 32.9014 24.0059 33.1993 24.7639 33.3043C24.9591 33.3313 25.4979 33.3426 25.7256 33.3256Z" fill="#20B4EA"/>
</svg>
